<?xml version="1.0" encoding="iso-8859-1"?>
<!-- Uploaded to: SVG Repo, www.svgrepo.com, Generator: SVG Repo Mixer Tools -->
<svg height="800px" width="800px" version="1.1" id="Layer_1" xmlns="http://www.w3.org/2000/svg" xmlns:xlink="http://www.w3.org/1999/xlink" 
	 viewBox="0 0 489.366 489.366" xml:space="preserve">
<path style="fill:#00FFCE;" d="M11.811,321.152c-3.017,0-6.042-1.15-8.35-3.458c-4.616-4.616-4.616-12.091,0-16.707l108.434-108.434
	l46.434,46.434L263.558,133.76l70.152,70.152L456.377,81.237c4.624-4.616,12.107-4.616,16.715,0c4.608,4.616,4.608,12.091,0,16.707
	L333.71,237.318l-70.152-70.152L158.33,272.402l-46.434-46.434l-91.719,91.727C17.861,320.002,14.844,321.152,11.811,321.152z"/>
<path style="fill:#06BCB7;" d="M456.377,97.644L333.71,220.304l-70.152-70.152L158.33,255.395l-46.434-46.434L3.462,317.395
	c-0.055,0.047-0.063,0.11-0.102,0.142c0.039,0.047,0.047,0.11,0.102,0.158c2.308,2.308,5.333,3.458,8.35,3.458
	c3.033,0,6.049-1.15,8.365-3.458l91.727-91.727l46.434,46.434l105.228-105.228l70.152,70.152L473.1,97.936
	c0.039-0.047,0.063-0.11,0.102-0.158c-0.039-0.032-0.063-0.095-0.102-0.142C468.492,93.028,461.001,93.028,456.377,97.644z"/>
<polygon style="fill:#A8C5C6;" points="429.139,72.044 409.738,72.044 409.738,91.461 "/>
<g>
	<polygon style="fill:#BC0F45;" points="409.738,195.751 409.738,423.891 459.63,423.891 459.63,145.875 	"/>
	<polygon style="fill:#BC0F45;" points="333.71,271.779 312.584,250.646 312.584,423.891 362.476,423.891 362.476,243.013 	"/>
</g>
<g>
	<polygon style="fill:#A8C5C6;" points="333.71,167.473 362.476,138.707 362.476,72.044 312.584,72.044 312.584,146.339 	"/>
	<polygon style="fill:#A8C5C6;" points="263.558,97.321 265.322,99.078 265.322,72.044 215.43,72.044 215.43,145.441 	"/>
</g>
<polygon style="fill:#BC0F45;" points="263.558,201.628 215.43,249.756 215.43,423.891 265.322,423.891 265.322,203.384 "/>
<polygon style="fill:#A8C5C6;" points="158.33,202.549 168.168,192.719 168.168,72.044 118.276,72.044 118.276,162.503 "/>
<polygon style="fill:#BC0F45;" points="158.33,306.863 118.276,266.817 118.276,423.891 168.168,423.891 168.168,297.033 "/>
<polygon style="fill:#A8C5C6;" points="71.014,197.012 71.014,72.044 21.122,72.044 21.122,246.904 "/>
<polygon style="fill:#BC0F45;" points="21.122,351.21 21.122,423.891 71.014,423.891 71.014,301.318 "/>
<path style="fill:#00FFCE;" d="M473.612,154.09c-8.696,0-15.754-7.05-15.754-15.754V96.983h-41.354
	c-8.704,0-15.754-7.05-15.754-15.754c0-8.696,7.05-15.754,15.754-15.754h72.862v72.862
	C489.366,147.04,482.308,154.09,473.612,154.09z"/>
<path style="fill:#06BCB7;" d="M400.947,79.212c-0.079,0.677-0.197,1.323-0.197,2.016c0,8.704,7.05,15.754,15.754,15.754h41.354
	v41.354c0,8.704,7.058,15.754,15.754,15.754c0.693,0,1.355-0.11,2.016-0.197c0.095-0.662,0.197-1.323,0.197-2.016V79.015h-72.862
	C402.271,79.015,401.609,79.134,400.947,79.212z"/>
</svg>